<svg width="257" height="81" viewBox="0 0 257 81" fill="none" xmlns="http://www.w3.org/2000/svg">
<path d="M51.4062 19.2344C52.1224 18.1276 53.0501 16.8581 54.1895 15.4258C55.3613 13.9935 56.6797 12.5612 58.1445 11.1289C59.6094 9.66406 61.2044 8.2806 62.9297 6.97852C64.6875 5.67643 66.5104 4.61849 68.3984 3.80469C66.4453 3.31641 64.362 2.94206 62.1484 2.68164C59.9349 2.42122 57.5586 2.29102 55.0195 2.29102C51.569 2.29102 48.2487 2.53516 45.0586 3.02344C41.8685 3.51172 38.9062 4.26042 36.1719 5.26953C33.4375 6.27865 30.9473 7.58073 28.7012 9.17578C26.4876 10.7383 24.5833 12.6263 22.9883 14.8398C21.3932 17.0534 20.1562 19.5924 19.2773 22.457C18.431 25.3216 18.0078 28.528 18.0078 32.0762C18.0078 33.1829 18.0566 34.3385 18.1543 35.543C18.2845 36.7474 18.5449 37.9355 18.9355 39.1074C19.3262 40.2467 19.8796 41.3372 20.5957 42.3789C21.3118 43.4206 22.2721 44.3158 23.4766 45.0645L22.8418 46.0898C19.9121 44.6901 17.7474 42.8184 16.3477 40.4746C14.9479 38.0983 14.248 35.0059 14.248 31.1973C14.248 26.5749 15.2572 22.3757 17.2754 18.5996C19.2936 14.8236 22.0931 11.6009 25.6738 8.93164C29.2546 6.22982 33.5189 4.14648 38.4668 2.68164C43.4473 1.18424 48.8835 0.435547 54.7754 0.435547C60.8952 0.435547 66.3314 1.23307 71.084 2.82812C75.8691 4.39062 79.8893 6.63672 83.1445 9.56641C86.4323 12.4635 88.9225 15.9466 90.6152 20.0156C92.3405 24.0846 93.2031 28.6094 93.2031 33.5898C93.2031 36.6823 92.8776 39.7259 92.2266 42.7207C91.5755 45.7155 90.6641 48.5964 89.4922 51.3633C88.3529 54.1302 86.9694 56.7669 85.3418 59.2734C83.7467 61.7474 81.9889 64.026 80.0684 66.1094C78.1478 68.1927 76.0156 70.1458 73.6719 71.9688C71.3281 73.7591 68.7402 75.3216 65.9082 76.6562C63.1087 77.9909 60.0814 79.0326 56.8262 79.7812C53.571 80.5625 50.0716 80.9531 46.3281 80.9531C44.0495 80.9531 41.8848 80.8229 39.834 80.5625C37.7832 80.3021 35.8626 79.9603 34.0723 79.5371C32.3145 79.1465 30.7031 78.7233 29.2383 78.2676C27.806 77.7793 26.5527 77.3236 25.4785 76.9004C23.1022 78.2676 20.6283 79.2767 18.0566 79.9277C15.5176 80.5788 12.8158 80.9043 9.95117 80.9043C7.93294 80.9043 6.28906 80.7578 5.01953 80.4648C3.75 80.2044 2.75716 79.8301 2.04102 79.3418C1.32487 78.8861 0.820312 78.3652 0.527344 77.7793C0.266927 77.1934 0.136719 76.6074 0.136719 76.0215C0.136719 74.8496 0.511068 73.9219 1.25977 73.2383C2.04102 72.5547 3.01758 72.0339 4.18945 71.6758C5.36133 71.2852 6.63086 71.041 7.99805 70.9434C9.39779 70.8132 10.7161 70.748 11.9531 70.748C14.6224 70.748 17.0964 70.9271 19.375 71.2852C21.6862 71.6107 23.8997 72.099 26.0156 72.75C27.0247 71.6107 28.0339 70.276 29.043 68.7461C30.0846 67.1836 31.1426 65.377 32.2168 63.3262C33.291 61.2754 34.3978 58.9642 35.5371 56.3926C36.709 53.821 37.9297 50.9401 39.1992 47.75C40.7292 43.9089 42.0475 40.6211 43.1543 37.8867C44.2611 35.1198 45.2051 32.776 45.9863 30.8555C46.7676 28.9023 47.4186 27.291 47.9395 26.0215C48.4928 24.752 48.9648 23.7103 49.3555 22.8965C49.7461 22.0501 50.0879 21.3665 50.3809 20.8457C50.7064 20.2923 51.0482 19.7552 51.4062 19.2344ZM86.9531 30.3672C86.9531 23.401 85.5697 17.7858 82.8027 13.5215C80.0684 9.22461 75.8691 6.16471 70.2051 4.3418C69.3262 4.79753 68.4635 5.31836 67.6172 5.9043C66.7708 6.49023 65.9733 7.125 65.2246 7.80859C64.4759 8.49219 63.776 9.20833 63.125 9.95703C62.5065 10.7057 61.9531 11.4382 61.4648 12.1543C61.0742 12.7077 60.6999 13.3262 60.3418 14.0098C59.9837 14.6934 59.5768 15.5234 59.1211 16.5C58.6979 17.4766 58.2096 18.6484 57.6562 20.0156C57.1354 21.3828 56.5169 23.0267 55.8008 24.9473C55.0846 26.8353 54.2546 29.0488 53.3105 31.5879C52.3665 34.127 51.2923 37.0566 50.0879 40.377C47.028 48.6777 43.8216 55.5788 40.4688 61.0801C37.1159 66.5814 33.5189 70.8945 29.6777 74.0195C30.9147 74.4753 32.2656 74.9798 33.7305 75.5332C35.1953 76.054 36.7741 76.5423 38.4668 76.998C40.1595 77.4538 41.9336 77.8281 43.7891 78.1211C45.6771 78.4141 47.6465 78.5605 49.6973 78.5605C52.9199 78.5605 55.8659 78.1862 58.5352 77.4375C61.2044 76.6562 63.6296 75.5983 65.8105 74.2637C68.0241 72.929 70.0098 71.3828 71.7676 69.625C73.5579 67.8346 75.1693 65.9303 76.6016 63.9121C78.1641 61.666 79.5801 59.2246 80.8496 56.5879C82.1191 53.9186 83.2096 51.1354 84.1211 48.2383C85.0326 45.3411 85.7324 42.3952 86.2207 39.4004C86.709 36.373 86.9531 33.362 86.9531 30.3672ZM10.293 79.1465C12.7344 79.1465 14.9479 78.9349 16.9336 78.5117C18.9193 78.056 20.8236 77.1608 22.6465 75.8262C21.9954 75.6309 21.084 75.3704 19.9121 75.0449C18.7402 74.6868 17.4544 74.3613 16.0547 74.0684C14.6875 73.7428 13.2715 73.4661 11.8066 73.2383C10.3743 73.0104 9.02344 72.8965 7.75391 72.8965C6.09375 72.8965 4.72656 73.1406 3.65234 73.6289C2.61068 74.1172 2.08984 74.931 2.08984 76.0703C2.08984 76.4935 2.1875 76.9004 2.38281 77.291C2.61068 77.6491 3.01758 77.9746 3.60352 78.2676C4.22201 78.528 5.05208 78.7396 6.09375 78.9023C7.16797 79.0651 8.56771 79.1465 10.293 79.1465ZM123.477 79.9277C117.585 79.9277 113.044 78.3978 109.854 75.3379C106.663 72.2454 105.068 67.6556 105.068 61.5684C105.068 59.9082 105.199 58.1504 105.459 56.2949C105.687 54.4395 106.061 52.5352 106.582 50.582C107.754 46.2201 109.398 42.1836 111.514 38.4727C113.662 34.7617 116.12 31.5553 118.887 28.8535C121.654 26.1517 124.632 24.0358 127.822 22.5059C131.012 20.9759 134.219 20.2109 137.441 20.2109C140.697 20.2109 143.252 20.9759 145.107 22.5059C146.995 24.0358 147.939 26.1842 147.939 28.9512C147.939 30.5137 147.63 32.0436 147.012 33.541C146.393 35.0384 145.498 36.4544 144.326 37.7891C143.154 39.1237 141.738 40.377 140.078 41.5488C138.451 42.6882 136.611 43.681 134.561 44.5273C132.021 45.6016 129.222 46.4154 126.162 46.9688C123.102 47.4896 119.619 47.75 115.713 47.75C114.769 50.3867 114.02 53.1374 113.467 56.002C112.946 58.834 112.686 61.7311 112.686 64.6934C112.686 69.2181 113.63 72.4896 115.518 74.5078C117.438 76.4935 120.449 77.4863 124.551 77.4863C127.969 77.4863 131.224 76.8353 134.316 75.5332C137.409 74.1986 140.273 72.457 142.91 70.3086C145.547 68.1602 147.956 65.7188 150.137 62.9844C152.318 60.2174 154.222 57.4017 155.85 54.5371L158.389 50.0449L159.707 50.9727L157.168 55.4648C155.15 59.013 152.936 62.2845 150.527 65.2793C148.151 68.2741 145.547 70.862 142.715 73.043C139.915 75.1914 136.904 76.8841 133.682 78.1211C130.492 79.3255 127.09 79.9277 123.477 79.9277ZM138.809 22.1641C136.758 22.1641 134.658 22.7663 132.51 23.9707C130.394 25.1751 128.343 26.8516 126.357 29C124.372 31.1159 122.516 33.6224 120.791 36.5195C119.066 39.4167 117.568 42.5742 116.299 45.9922C119.88 45.9271 122.939 45.6178 125.479 45.0645C128.018 44.4785 130.231 43.7461 132.119 42.8672C133.617 42.1836 135.065 41.3047 136.465 40.2305C137.897 39.1237 139.15 37.8704 140.225 36.4707C141.331 35.071 142.21 33.5573 142.861 31.9297C143.545 30.3021 143.887 28.6094 143.887 26.8516C143.887 25.9727 143.757 25.2402 143.496 24.6543C143.236 24.0684 142.878 23.5964 142.422 23.2383C141.966 22.8477 141.429 22.571 140.811 22.4082C140.192 22.2454 139.525 22.1641 138.809 22.1641ZM195.107 32.8574C194.001 32.8574 193.122 32.5482 192.471 31.9297C191.852 31.2786 191.543 30.3997 191.543 29.293C191.543 28.2513 191.82 27.4049 192.373 26.7539C192.926 26.1029 193.659 25.7773 194.57 25.7773C194.896 25.7773 195.205 25.8424 195.498 25.9727C195.661 26.0378 195.775 26.0866 195.84 26.1191C195.905 26.1191 195.97 26.1191 196.035 26.1191C196.328 26.1191 196.475 25.9076 196.475 25.4844C196.475 25.0612 196.312 24.6543 195.986 24.2637C195.661 23.8405 195.221 23.4824 194.668 23.1895C194.115 22.8639 193.464 22.6198 192.715 22.457C191.999 22.2617 191.25 22.1641 190.469 22.1641C188.451 22.1641 186.4 22.75 184.316 23.9219C182.266 25.0938 180.264 26.7051 178.311 28.7559C176.39 30.7741 174.567 33.1504 172.842 35.8848C171.149 38.6191 169.668 41.5488 168.398 44.6738C167.129 47.7663 166.12 50.9727 165.371 54.293C164.655 57.6133 164.297 60.8685 164.297 64.0586C164.297 66.4674 164.508 68.5182 164.932 70.2109C165.387 71.9036 166.071 73.2871 166.982 74.3613C167.926 75.4355 169.131 76.2331 170.596 76.7539C172.061 77.2422 173.818 77.4863 175.869 77.4863C178.896 77.4863 181.842 76.9818 184.707 75.9727C187.604 74.9635 190.387 73.4987 193.057 71.5781C195.758 69.625 198.314 67.2324 200.723 64.4004C203.164 61.5358 205.426 58.248 207.51 54.5371L210.049 50.0449L211.367 50.9727L208.828 55.4648C204.173 63.7331 199.03 69.8854 193.398 73.9219C187.767 77.9258 181.615 79.9277 174.941 79.9277C168.887 79.9277 164.329 78.3652 161.27 75.2402C158.242 72.1152 156.729 67.5742 156.729 61.6172C156.729 59.8594 156.859 58.0527 157.119 56.1973C157.38 54.3418 157.754 52.4701 158.242 50.582C159.414 46.2201 161.058 42.1836 163.174 38.4727C165.322 34.7617 167.764 31.5553 170.498 28.8535C173.265 26.1517 176.243 24.0358 179.434 22.5059C182.656 20.9759 185.928 20.2109 189.248 20.2109C192.731 20.2109 195.384 21.1224 197.207 22.9453C197.956 23.694 198.525 24.5241 198.916 25.4355C199.307 26.3145 199.502 27.2259 199.502 28.1699C199.502 29.6022 199.095 30.7415 198.281 31.5879C197.5 32.4342 196.442 32.8574 195.107 32.8574ZM209.707 50.6309C210.846 46.2689 212.507 42.2324 214.688 38.5215C216.901 34.8105 219.424 31.6042 222.256 28.9023C225.12 26.168 228.213 24.0358 231.533 22.5059C234.886 20.9759 238.255 20.2109 241.641 20.2109C244.375 20.2109 246.67 20.6829 248.525 21.627C250.413 22.5384 251.927 23.7754 253.066 25.3379C254.206 26.9004 255.02 28.707 255.508 30.7578C255.996 32.8086 256.24 34.957 256.24 37.2031C256.24 39.6445 255.996 42.0859 255.508 44.5273C255.052 46.9688 254.45 49.2962 253.701 51.5098C252.301 55.6113 250.495 59.4036 248.281 62.8867C246.068 66.3372 243.594 69.332 240.859 71.8711C238.158 74.4102 235.277 76.3958 232.217 77.8281C229.157 79.2279 226.097 79.9277 223.037 79.9277C220.726 79.9277 218.643 79.5208 216.787 78.707C214.964 77.8607 213.418 76.6562 212.148 75.0938C210.879 73.5312 209.902 71.627 209.219 69.3809C208.535 67.1022 208.193 64.5469 208.193 61.7148C208.193 59.9245 208.324 58.1016 208.584 56.2461C208.844 54.3581 209.219 52.4863 209.707 50.6309ZM223.77 77.4863C226.113 77.4863 228.49 76.819 230.898 75.4844C233.34 74.1497 235.684 72.2943 237.93 69.918C240.208 67.5091 242.324 64.6445 244.277 61.3242C246.23 58.0039 247.907 54.3581 249.307 50.3867C249.697 49.3125 250.072 48.1081 250.43 46.7734C250.82 45.4388 251.178 44.0553 251.504 42.623C251.829 41.1582 252.09 39.6771 252.285 38.1797C252.48 36.6497 252.578 35.1686 252.578 33.7363C252.578 32.1738 252.432 30.6927 252.139 29.293C251.846 27.8607 251.341 26.6237 250.625 25.582C249.941 24.5404 248.997 23.7103 247.793 23.0918C246.621 22.4733 245.156 22.1641 243.398 22.1641C240.859 22.1641 238.337 22.8477 235.83 24.2148C233.356 25.5495 230.996 27.4538 228.75 29.9277C226.536 32.3691 224.518 35.2988 222.695 38.7168C220.872 42.1348 219.359 45.9108 218.154 50.0449C217.34 52.8118 216.706 55.5951 216.25 58.3945C215.827 61.1615 215.615 63.6842 215.615 65.9629C215.615 73.6452 218.333 77.4863 223.77 77.4863Z" fill="white"/>
</svg>
