<svg width="94" height="81" viewBox="0 0 94 81" fill="none" xmlns="http://www.w3.org/2000/svg">
<path d="M51.2695 19.2344C51.9857 18.1276 52.9134 16.8581 54.0527 15.4258C55.2246 13.9935 56.543 12.5612 58.0078 11.1289C59.4727 9.66406 61.0677 8.2806 62.793 6.97852C64.5508 5.67643 66.3737 4.61849 68.2617 3.80469C66.3086 3.31641 64.2253 2.94206 62.0117 2.68164C59.7982 2.42122 57.4219 2.29102 54.8828 2.29102C51.4323 2.29102 48.112 2.53516 44.9219 3.02344C41.7318 3.51172 38.7695 4.26042 36.0352 5.26953C33.3008 6.27865 30.8105 7.58073 28.5645 9.17578C26.3509 10.7383 24.4466 12.6263 22.8516 14.8398C21.2565 17.0534 20.0195 19.5924 19.1406 22.457C18.2943 25.3216 17.8711 28.528 17.8711 32.0762C17.8711 33.1829 17.9199 34.3385 18.0176 35.543C18.1478 36.7474 18.4082 37.9355 18.7988 39.1074C19.1895 40.2467 19.7428 41.3372 20.459 42.3789C21.1751 43.4206 22.1354 44.3158 23.3398 45.0645L22.7051 46.0898C19.7754 44.6901 17.6107 42.8184 16.2109 40.4746C14.8112 38.0983 14.1113 35.0059 14.1113 31.1973C14.1113 26.5749 15.1204 22.3757 17.1387 18.5996C19.1569 14.8236 21.9564 11.6009 25.5371 8.93164C29.1178 6.22982 33.3822 4.14648 38.3301 2.68164C43.3105 1.18424 48.7467 0.435547 54.6387 0.435547C60.7585 0.435547 66.1947 1.23307 70.9473 2.82812C75.7324 4.39062 79.7526 6.63672 83.0078 9.56641C86.2956 12.4635 88.7858 15.9466 90.4785 20.0156C92.2038 24.0846 93.0664 28.6094 93.0664 33.5898C93.0664 36.6823 92.7409 39.7259 92.0898 42.7207C91.4388 45.7155 90.5273 48.5964 89.3555 51.3633C88.2161 54.1302 86.8327 56.7669 85.2051 59.2734C83.61 61.7474 81.8522 64.026 79.9316 66.1094C78.0111 68.1927 75.8789 70.1458 73.5352 71.9688C71.1914 73.7591 68.6035 75.3216 65.7715 76.6562C62.972 77.9909 59.9447 79.0326 56.6895 79.7812C53.4342 80.5625 49.9349 80.9531 46.1914 80.9531C43.9128 80.9531 41.748 80.8229 39.6973 80.5625C37.6465 80.3021 35.7259 79.9603 33.9355 79.5371C32.1777 79.1465 30.5664 78.7233 29.1016 78.2676C27.6693 77.7793 26.416 77.3236 25.3418 76.9004C22.9655 78.2676 20.4915 79.2767 17.9199 79.9277C15.3809 80.5788 12.679 80.9043 9.81445 80.9043C7.79622 80.9043 6.15234 80.7578 4.88281 80.4648C3.61328 80.2044 2.62044 79.8301 1.9043 79.3418C1.18815 78.8861 0.683594 78.3652 0.390625 77.7793C0.130208 77.1934 0 76.6074 0 76.0215C0 74.8496 0.374349 73.9219 1.12305 73.2383C1.9043 72.5547 2.88086 72.0339 4.05273 71.6758C5.22461 71.2852 6.49414 71.041 7.86133 70.9434C9.26107 70.8132 10.5794 70.748 11.8164 70.748C14.4857 70.748 16.9596 70.9271 19.2383 71.2852C21.5495 71.6107 23.763 72.099 25.8789 72.75C26.888 71.6107 27.8971 70.276 28.9062 68.7461C29.9479 67.1836 31.0059 65.377 32.0801 63.3262C33.1543 61.2754 34.2611 58.9642 35.4004 56.3926C36.5723 53.821 37.793 50.9401 39.0625 47.75C40.5924 43.9089 41.9108 40.6211 43.0176 37.8867C44.1243 35.1198 45.0684 32.776 45.8496 30.8555C46.6309 28.9023 47.2819 27.291 47.8027 26.0215C48.3561 24.752 48.8281 23.7103 49.2188 22.8965C49.6094 22.0501 49.9512 21.3665 50.2441 20.8457C50.5697 20.2923 50.9115 19.7552 51.2695 19.2344ZM86.8164 30.3672C86.8164 23.401 85.4329 17.7858 82.666 13.5215C79.9316 9.22461 75.7324 6.16471 70.0684 4.3418C69.1895 4.79753 68.3268 5.31836 67.4805 5.9043C66.6341 6.49023 65.8366 7.125 65.0879 7.80859C64.3392 8.49219 63.6393 9.20833 62.9883 9.95703C62.3698 10.7057 61.8164 11.4382 61.3281 12.1543C60.9375 12.7077 60.5632 13.3262 60.2051 14.0098C59.847 14.6934 59.4401 15.5234 58.9844 16.5C58.5612 17.4766 58.0729 18.6484 57.5195 20.0156C56.9987 21.3828 56.3802 23.0267 55.6641 24.9473C54.9479 26.8353 54.1178 29.0488 53.1738 31.5879C52.2298 34.127 51.1556 37.0566 49.9512 40.377C46.8913 48.6777 43.6849 55.5788 40.332 61.0801C36.9792 66.5814 33.3822 70.8945 29.541 74.0195C30.778 74.4753 32.1289 74.9798 33.5938 75.5332C35.0586 76.054 36.6374 76.5423 38.3301 76.998C40.0228 77.4538 41.7969 77.8281 43.6523 78.1211C45.5404 78.4141 47.5098 78.5605 49.5605 78.5605C52.7832 78.5605 55.7292 78.1862 58.3984 77.4375C61.0677 76.6562 63.4928 75.5983 65.6738 74.2637C67.8874 72.929 69.873 71.3828 71.6309 69.625C73.4212 67.8346 75.0326 65.9303 76.4648 63.9121C78.0273 61.666 79.4434 59.2246 80.7129 56.5879C81.9824 53.9186 83.0729 51.1354 83.9844 48.2383C84.8958 45.3411 85.5957 42.3952 86.084 39.4004C86.5723 36.373 86.8164 33.362 86.8164 30.3672ZM10.1562 79.1465C12.5977 79.1465 14.8112 78.9349 16.7969 78.5117C18.7826 78.056 20.6868 77.1608 22.5098 75.8262C21.8587 75.6309 20.9473 75.3704 19.7754 75.0449C18.6035 74.6868 17.3177 74.3613 15.918 74.0684C14.5508 73.7428 13.1348 73.4661 11.6699 73.2383C10.2376 73.0104 8.88672 72.8965 7.61719 72.8965C5.95703 72.8965 4.58984 73.1406 3.51562 73.6289C2.47396 74.1172 1.95312 74.931 1.95312 76.0703C1.95312 76.4935 2.05078 76.9004 2.24609 77.291C2.47396 77.6491 2.88086 77.9746 3.4668 78.2676C4.08529 78.528 4.91536 78.7396 5.95703 78.9023C7.03125 79.0651 8.43099 79.1465 10.1562 79.1465Z" fill="white"/>
<path d="M51.2695 19.2344L52.5056 20.0842L52.5175 20.0669L52.5289 20.0493L51.2695 19.2344ZM54.0527 15.4258L52.8918 14.4759L52.8853 14.4839L52.8788 14.492L54.0527 15.4258ZM58.0078 11.1289L59.0565 12.2014L59.0625 12.1955L59.0685 12.1896L58.0078 11.1289ZM62.793 6.97852L61.9001 5.77313L61.8894 5.78123L62.793 6.97852ZM68.2617 3.80469L68.8555 5.18217L72.9305 3.42571L68.6255 2.34947L68.2617 3.80469ZM28.5645 9.17578L29.4295 10.4012L29.433 10.3988L28.5645 9.17578ZM22.8516 14.8398L21.6346 13.9629L22.8516 14.8398ZM19.1406 22.457L17.7066 22.017L17.7043 22.0245L17.7021 22.032L19.1406 22.457ZM18.0176 35.543L16.5225 35.6642L16.5241 35.6842L16.5263 35.7042L18.0176 35.543ZM18.7988 39.1074L17.3758 39.5818L17.3799 39.5939L18.7988 39.1074ZM23.3398 45.0645L24.6152 45.854L25.4033 44.581L24.1317 43.7905L23.3398 45.0645ZM22.7051 46.0898L22.0584 47.4433L23.2723 48.0233L23.9805 46.8794L22.7051 46.0898ZM16.2109 40.4746L14.9185 41.2359L14.9231 41.2437L16.2109 40.4746ZM17.1387 18.5996L15.8158 17.8925L17.1387 18.5996ZM25.5371 8.93164L26.4336 10.1343L26.4406 10.129L25.5371 8.93164ZM38.3301 2.68164L38.7559 4.11995L38.762 4.11812L38.3301 2.68164ZM70.9473 2.82812L70.47 4.25022L70.4817 4.25403L70.9473 2.82812ZM83.0078 9.56641L82.0044 10.6813L82.0102 10.6866L82.0161 10.6918L83.0078 9.56641ZM90.4785 20.0156L89.0935 20.5918L89.0975 20.6012L90.4785 20.0156ZM89.3555 51.3633L87.9742 50.7783L87.9713 50.7852L87.9685 50.7922L89.3555 51.3633ZM85.2051 59.2734L83.947 58.4565L83.9444 58.4606L85.2051 59.2734ZM73.5352 71.9688L74.4458 73.1608L74.4561 73.1528L73.5352 71.9688ZM65.7715 76.6562L65.132 75.2994L65.126 75.3023L65.7715 76.6562ZM56.6895 79.7812L56.3532 78.3194L56.3463 78.321L56.3394 78.3227L56.6895 79.7812ZM33.9355 79.5371L34.2806 78.0773L34.2708 78.075L34.2609 78.0728L33.9355 79.5371ZM29.1016 78.2676L28.6176 79.6873L28.6367 79.6939L28.656 79.6999L29.1016 78.2676ZM25.3418 76.9004L25.8916 75.5048L25.2197 75.2401L24.5938 75.6002L25.3418 76.9004ZM17.9199 79.9277L17.5518 78.4736L17.5474 78.4747L17.9199 79.9277ZM4.88281 80.4648L5.2201 79.0033L5.20221 78.9991L5.18423 78.9954L4.88281 80.4648ZM1.9043 79.3418L2.7493 78.1025L2.72966 78.0891L2.70961 78.0763L1.9043 79.3418ZM0.390625 77.7793L-0.980092 78.3885L-0.966254 78.4196L-0.951016 78.4501L0.390625 77.7793ZM1.12305 73.2383L0.13529 72.1094L0.123355 72.1199L0.111643 72.1306L1.12305 73.2383ZM4.05273 71.6758L4.49106 73.1103L4.50914 73.1048L4.52708 73.0988L4.05273 71.6758ZM7.86133 70.9434L7.9682 72.4395L7.98425 72.4384L8.00026 72.4369L7.86133 70.9434ZM19.2383 71.2852L19.0054 72.767L19.0172 72.7688L19.0291 72.7705L19.2383 71.2852ZM25.8789 72.75L25.4378 74.1837L26.3612 74.4678L27.0018 73.7446L25.8789 72.75ZM28.9062 68.7461L27.6582 67.914L27.6541 67.9202L28.9062 68.7461ZM35.4004 56.3926L34.0354 55.7706L34.0322 55.7778L34.029 55.785L35.4004 56.3926ZM39.0625 47.75L37.669 47.195L37.6688 47.1954L39.0625 47.75ZM43.0176 37.8867L44.408 38.4495L44.4103 38.4438L43.0176 37.8867ZM45.8496 30.8555L47.2391 31.4207L47.2423 31.4126L45.8496 30.8555ZM47.8027 26.0215L46.4277 25.4221L46.4212 25.4371L46.415 25.4521L47.8027 26.0215ZM49.2188 22.8965L50.571 23.5456L50.5759 23.5354L50.5807 23.5251L49.2188 22.8965ZM50.2441 20.8457L48.9512 20.0852L48.9439 20.0977L48.9368 20.1103L50.2441 20.8457ZM82.666 13.5215L81.4005 14.3268L81.4077 14.338L82.666 13.5215ZM70.0684 4.3418L70.5279 2.91392L69.9328 2.72241L69.3779 3.01017L70.0684 4.3418ZM62.9883 9.95703L61.8564 8.97276L61.8439 8.98708L61.8318 9.00171L62.9883 9.95703ZM61.3281 12.1543L62.5536 13.0193L62.5606 13.0094L62.5675 12.9993L61.3281 12.1543ZM58.9844 16.5L57.6251 15.8657L57.6163 15.8845L57.608 15.9036L58.9844 16.5ZM57.5195 20.0156L56.1291 19.4528L56.1233 19.4672L56.1178 19.4816L57.5195 20.0156ZM55.6641 24.9473L57.0666 25.4793L57.0695 25.4713L55.6641 24.9473ZM49.9512 40.377L51.3586 40.8958L51.3613 40.8885L49.9512 40.377ZM29.541 74.0195L28.5944 72.856L26.5526 74.5171L29.0225 75.427L29.541 74.0195ZM33.5938 75.5332L33.0636 76.9364L33.0774 76.9416L33.0912 76.9465L33.5938 75.5332ZM43.6523 78.1211L43.4184 79.6027L43.4223 79.6034L43.6523 78.1211ZM58.3984 77.4375L58.8035 78.8818L58.8117 78.8795L58.8198 78.8771L58.3984 77.4375ZM65.6738 74.2637L64.8993 72.9791L64.8909 72.9842L65.6738 74.2637ZM71.6309 69.625L70.5702 68.5643L71.6309 69.625ZM76.4648 63.9121L77.6882 64.7803L77.6962 64.7687L76.4648 63.9121ZM80.7129 56.5879L82.0644 57.2386L82.0675 57.2321L80.7129 56.5879ZM86.084 39.4004L87.5644 39.6418L87.5648 39.6392L86.084 39.4004ZM16.7969 78.5117L17.1095 79.9788L17.121 79.9763L17.1324 79.9737L16.7969 78.5117ZM22.5098 75.8262L23.3959 77.0365L25.8282 75.2557L22.9408 74.3894L22.5098 75.8262ZM19.7754 75.0449L19.3371 76.4794L19.3554 76.4851L19.3739 76.4902L19.7754 75.0449ZM15.918 74.0684L15.5705 75.5276L15.5905 75.5323L15.6107 75.5365L15.918 74.0684ZM11.6699 73.2383L11.4342 74.7197L11.4394 74.7205L11.6699 73.2383ZM3.51562 73.6289L2.89492 72.2634L2.88693 72.267L2.87897 72.2707L3.51562 73.6289ZM2.24609 77.291L0.904453 77.9618L0.939058 78.031L0.980602 78.0963L2.24609 77.291ZM3.4668 78.2676L2.79598 79.6092L2.83968 79.6311L2.88471 79.65L3.4668 78.2676ZM5.95703 78.9023L5.72546 80.3844L5.73232 80.3854L5.95703 78.9023ZM52.5289 20.0493C53.2106 18.9958 54.107 17.7671 55.2266 16.3596L52.8788 14.492C51.7198 15.949 50.7608 17.2595 50.0102 18.4195L52.5289 20.0493ZM55.2137 16.3756C56.3469 14.9905 57.6272 13.599 59.0565 12.2014L56.9591 10.0564C55.4588 11.5234 54.1023 12.9964 52.8918 14.4759L55.2137 16.3756ZM59.0685 12.1896C60.4821 10.7759 62.0244 9.43784 63.6966 8.1758L61.8894 5.78123C60.111 7.12336 58.4632 8.55221 56.9472 10.0682L59.0685 12.1896ZM63.6858 8.18385C65.3568 6.9461 67.08 5.94747 68.8555 5.18217L67.668 2.4272C65.6674 3.28951 63.7448 4.40677 61.9001 5.77318L63.6858 8.18385ZM68.6255 2.34947C66.6042 1.84414 64.4574 1.45902 62.187 1.19191L61.8365 4.17137C63.9931 4.42509 66.013 4.78867 67.8979 5.2599L68.6255 2.34947ZM62.187 1.19191C59.9079 0.923791 57.4726 0.791016 54.8828 0.791016V3.79102C57.3712 3.79102 59.6884 3.91866 61.8365 4.17137L62.187 1.19191ZM54.8828 0.791016C51.3615 0.791016 47.9651 1.04017 44.6949 1.54071L45.1488 4.50617C48.2589 4.03014 51.5031 3.79102 54.8828 3.79102V0.791016ZM44.6949 1.54071C41.4156 2.04265 38.3543 2.81476 35.5158 3.8623L36.5545 6.67676C39.1847 5.70608 42.048 4.98079 45.1488 4.50617L44.6949 1.54071ZM35.5158 3.8623C32.6646 4.91453 30.0559 6.2769 27.696 7.95279L29.433 10.3988C31.5652 8.88456 33.9369 7.64276 36.5545 6.67676L35.5158 3.8623ZM27.6994 7.95033C25.3491 9.60938 23.3262 11.6155 21.6346 13.9629L24.0685 15.7168C25.5671 13.6371 27.3527 11.8672 29.4295 10.4012L27.6994 7.95033ZM21.6346 13.9629C19.9349 16.3217 18.6288 19.0112 17.7066 22.017L20.5746 22.897C21.4102 20.1736 22.5781 17.7851 24.0685 15.7168L21.6346 13.9629ZM17.7021 22.032C16.8082 25.0576 16.3711 28.4103 16.3711 32.0762H19.3711C19.3711 28.6457 19.7804 25.5856 20.5792 22.8821L17.7021 22.032ZM16.3711 32.0762C16.3711 33.2269 16.4219 34.4231 16.5225 35.6642L19.5127 35.4217C19.418 34.254 19.3711 33.139 19.3711 32.0762H16.3711ZM16.5263 35.7042C16.6682 37.0172 16.952 38.3103 17.3758 39.5818L20.2219 38.6331C19.8644 37.5608 19.6274 36.4776 19.5089 35.3817L16.5263 35.7042ZM17.3799 39.5939C17.8168 40.8683 18.4334 42.0804 19.2229 43.2287L21.695 41.5291C21.0522 40.5941 20.5621 39.6252 20.2177 38.6209L17.3799 39.5939ZM19.2229 43.2287C20.0698 44.4605 21.1892 45.4938 22.5479 46.3384L24.1317 43.7905C23.0816 43.1377 22.2805 42.3806 21.695 41.5291L19.2229 43.2287ZM22.0644 44.2749L21.4297 45.3003L23.9805 46.8794L24.6152 45.854L22.0644 44.2749ZM23.3517 44.7364C20.6373 43.4395 18.7202 41.7507 17.4988 39.7055L14.9231 41.2437C16.5011 43.886 18.9135 45.9407 22.0584 47.4433L23.3517 44.7364ZM17.5034 39.7133C16.2817 37.6393 15.6113 34.8357 15.6113 31.1973H12.6113C12.6113 35.176 13.3407 38.5573 14.9185 41.2359L17.5034 39.7133ZM15.6113 31.1973C15.6113 26.8014 16.5688 22.8481 18.4616 19.3067L15.8158 17.8925C13.6721 21.9032 12.6113 26.3484 12.6113 31.1973H15.6113ZM18.4616 19.3067C20.3713 15.7336 23.0219 12.6775 26.4336 10.1343L24.6406 7.72902C20.8909 10.5243 17.9425 13.9136 15.8158 17.8925L18.4616 19.3067ZM26.4406 10.129C29.858 7.55045 33.9548 5.54131 38.7559 4.11993L37.9043 1.24335C32.8095 2.75166 28.3777 4.90919 24.6336 7.73426L26.4406 10.129ZM38.762 4.11812C43.5851 2.66801 48.8739 1.93555 54.6387 1.93555V-1.06445C48.6196 -1.06445 43.0359 -0.299523 37.8982 1.24516L38.762 4.11812ZM54.6387 1.93555C60.6307 1.93555 65.9009 2.71669 70.47 4.25017L71.4245 1.40608C66.4885 -0.250548 60.8862 -1.06445 54.6387 -1.06445V1.93555ZM70.4817 4.25403C75.0974 5.76121 78.9264 7.91114 82.0044 10.6813L84.0113 8.45147C80.5789 5.3623 76.3675 3.02004 71.4129 1.40222L70.4817 4.25403ZM82.0161 10.6918C85.1317 13.4373 87.488 16.7321 89.0936 20.5918L91.8635 19.4395C90.0837 15.1611 87.4594 11.4898 83.9995 8.441L82.0161 10.6918ZM89.0975 20.6012C90.7349 24.4628 91.5664 28.7851 91.5664 33.5898H94.5664C94.5664 28.4337 93.6727 23.7064 91.8595 19.4301L89.0975 20.6012ZM91.5664 33.5898C91.5664 36.5761 91.2522 39.5129 90.6241 42.4021L93.5556 43.0393C94.2296 39.9389 94.5664 36.7884 94.5664 33.5898H91.5664ZM90.6241 42.4021C89.9925 45.3075 89.109 48.099 87.9742 50.7783L90.7367 51.9483C91.9457 49.0937 92.8851 46.1235 93.5556 43.0393L90.6241 42.4021ZM87.9685 50.7922C86.8644 53.4735 85.5241 56.0279 83.947 58.4565L86.4631 60.0903C88.1413 57.506 89.5679 54.787 90.7425 51.9344L87.9685 50.7922ZM83.9444 58.4606C82.3942 60.865 80.6888 63.075 78.8288 65.0927L81.0345 67.1261C83.0157 64.977 84.8259 62.6298 86.4658 60.0862L83.9444 58.4606ZM78.8288 65.0927C76.9667 67.1125 74.8959 69.0101 72.6142 70.7847L74.4561 73.1528C76.8619 71.2816 79.0554 69.2729 81.0345 67.1261L78.8288 65.0927ZM72.6246 70.7767C70.3701 72.4989 67.874 74.0072 65.132 75.2994L66.4109 78.0131C69.333 76.636 72.0127 75.0193 74.4457 73.1608L72.6246 70.7767ZM65.126 75.3023C62.4326 76.5863 59.5099 77.5934 56.3532 78.3194L57.0257 81.2431C60.3795 80.4717 63.5114 79.3955 66.417 78.0102L65.126 75.3023ZM56.3394 78.3227C53.2114 79.0734 49.8307 79.4531 46.1914 79.4531V82.4531C50.0391 82.4531 53.6571 82.0516 57.0395 81.2398L56.3394 78.3227ZM46.1914 79.4531C43.9696 79.4531 41.8684 79.3262 39.8862 79.0744L39.5083 82.0506C41.6277 82.3197 43.8559 82.4531 46.1914 82.4531V79.4531ZM39.8862 79.0744C37.8816 78.8199 36.0136 78.487 34.2806 78.0773L33.5905 80.9969C35.4382 81.4336 37.4113 81.7843 39.5083 82.0506L39.8862 79.0744ZM34.2609 78.0728C32.5369 77.6897 30.9663 77.2768 29.5472 76.8353L28.656 79.6999C30.1665 80.1698 31.8186 80.6033 33.6102 81.0014L34.2609 78.0728ZM29.5856 76.8478C28.169 76.3649 26.9386 75.9172 25.8916 75.5048L24.792 78.296C25.8934 78.7299 27.1695 79.1937 28.6176 79.6873L29.5856 76.8478ZM24.5938 75.6002C22.3324 76.9013 19.9859 77.8574 17.5518 78.4736L18.2881 81.3819C20.9972 80.696 23.5985 79.6339 26.0898 78.2006L24.5938 75.6002ZM17.5474 78.4747C15.1407 79.0918 12.5649 79.4043 9.81445 79.4043V82.4043C12.7932 82.4043 15.621 82.0657 18.2925 81.3807L17.5474 78.4747ZM9.81445 79.4043C7.85507 79.4043 6.3361 79.2608 5.2201 79.0033L4.54552 81.9264C5.96859 82.2548 7.73738 82.4043 9.81445 82.4043V79.4043ZM5.18423 78.9954C4.02194 78.757 3.24086 78.4376 2.7493 78.1025L1.05929 80.5811C2.00002 81.2225 3.20463 81.6518 4.5814 81.9342L5.18423 78.9954ZM2.70961 78.0763C2.15637 77.7242 1.87269 77.3893 1.73227 77.1085L-0.951016 78.4501C-0.505499 79.3412 0.219934 80.0479 1.09898 80.6073L2.70961 78.0763ZM1.76134 77.1701C1.57805 76.7577 1.5 76.3784 1.5 76.0215H-1.5C-1.5 76.8364 -1.31763 77.629 -0.980092 78.3885L1.76134 77.1701ZM1.5 76.0215C1.5 75.1989 1.74662 74.7001 2.13445 74.346L0.111643 72.1306C-0.997918 73.1436 -1.5 74.5003 -1.5 76.0215H1.5ZM2.1108 74.3671C2.7064 73.846 3.48575 73.4175 4.49106 73.1103L3.61441 70.2413C2.27597 70.6502 1.1022 71.2634 0.13529 72.1094L2.1108 74.3671ZM4.52708 73.0988C5.56782 72.7519 6.71259 72.5292 7.9682 72.4395L7.75446 69.4472C6.2757 69.5528 4.8814 69.8184 3.57839 70.2528L4.52708 73.0988ZM8.00026 72.4369C9.35991 72.3104 10.6316 72.248 11.8164 72.248V69.248C10.5273 69.248 9.16222 69.3159 7.72239 69.4498L8.00026 72.4369ZM11.8164 72.248C14.4195 72.248 16.8147 72.4227 19.0054 72.767L19.4711 69.8033C17.1046 69.4315 14.5518 69.248 11.8164 69.248V72.248ZM19.0291 72.7705C21.266 73.0855 23.4017 73.5572 25.4378 74.1837L26.32 71.3163C24.1244 70.6407 21.833 70.1358 19.4475 69.7998L19.0291 72.7705ZM27.0018 73.7446C28.0663 72.5427 29.1178 71.1496 30.1584 69.572L27.6541 67.9202C26.6764 69.4025 25.7098 70.6786 24.756 71.7554L27.0018 73.7446ZM30.1543 69.5781C31.2311 67.9631 32.3155 66.1094 33.4088 64.0222L30.7513 62.6302C29.6962 64.6445 28.6648 66.4041 27.6582 67.914L30.1543 69.5781ZM33.4088 64.0222C34.501 61.937 35.6219 59.5956 36.7718 57.0002L34.029 55.785C32.9002 58.3328 31.8076 60.6137 30.7513 62.6302L33.4088 64.0222ZM36.7653 57.0146C37.9492 54.4166 39.1795 51.5128 40.4562 48.3046L37.6688 47.1954C36.4065 50.3674 35.1953 53.2253 34.0354 55.7706L36.7653 57.0146ZM40.456 48.305C41.9853 44.4656 43.3026 41.1805 44.408 38.4495L41.6272 37.3239C40.519 40.0617 39.1996 43.3522 37.669 47.195L40.456 48.305ZM44.4103 38.4438C45.5164 35.6785 46.4593 33.3377 47.2391 31.4207L44.4602 30.2903C43.6775 32.2144 42.7323 34.5611 41.6249 37.3296L44.4103 38.4438ZM47.2423 31.4126C48.0227 29.4616 48.672 27.8547 49.1905 26.5908L46.415 25.4521C45.8918 26.7273 45.239 28.3431 44.4569 30.2984L47.2423 31.4126ZM49.1778 26.6209C49.7273 25.3603 50.1913 24.3368 50.571 23.5456L47.8665 22.2474C47.465 23.0838 46.985 24.1437 46.4277 25.4221L49.1778 26.6209ZM50.5807 23.5251C50.9627 22.6974 51.2858 22.0535 51.5515 21.5811L48.9368 20.1103C48.6166 20.6796 48.2561 21.4029 47.8568 22.2679L50.5807 23.5251ZM51.537 21.6062C51.845 21.0828 52.1678 20.5755 52.5056 20.0842L50.0335 18.3846C49.6551 18.9349 49.2944 19.5019 48.9512 20.0852L51.537 21.6062ZM88.3164 30.3672C88.3164 23.2151 86.8974 17.287 83.9243 12.705L81.4077 14.338C83.9685 18.2846 85.3164 23.5869 85.3164 30.3672H88.3164ZM83.9315 12.7162C80.9786 8.07586 76.4661 4.82508 70.5279 2.91392L69.6088 5.76967C74.9987 7.50435 78.8847 10.3734 81.4005 14.3268L83.9315 12.7162ZM69.3779 3.01017C68.4403 3.49631 67.5232 4.05029 66.6267 4.67101L68.3343 7.13759C69.1304 6.58643 69.9386 6.09874 70.7588 5.67343L69.3779 3.01017ZM66.6267 4.67101C65.7259 5.29463 64.8756 5.97124 64.0765 6.70087L66.0993 8.91632C66.7976 8.27876 67.5424 7.68584 68.3343 7.13759L66.6267 4.67101ZM64.0765 6.70087C63.2862 7.42242 62.546 8.1797 61.8564 8.97276L64.1202 10.9413C64.7327 10.237 65.3922 9.56195 66.0993 8.91632L64.0765 6.70087ZM61.8318 9.00171C61.1875 9.78174 60.6059 10.5509 60.0888 11.3093L62.5675 12.9993C63.027 12.3254 63.5521 11.6297 64.1447 10.9124L61.8318 9.00171ZM60.1027 11.2893C59.6691 11.9035 59.2609 12.5795 58.8763 13.3138L61.5338 14.7058C61.8654 14.0728 62.2059 13.5119 62.5536 13.0193L60.1027 11.2893ZM58.8763 13.3138C58.5044 14.0238 58.0871 14.8758 57.6251 15.8657L60.3436 17.1343C60.7932 16.1711 61.1896 15.3629 61.5338 14.7058L58.8763 13.3138ZM57.608 15.9036C57.1786 16.8946 56.6855 18.0783 56.1291 19.4528L58.91 20.5784C59.4604 19.2186 59.9438 18.0585 60.3607 17.0964L57.608 15.9036ZM56.1178 19.4816C55.5953 20.8531 54.9755 22.5005 54.2586 24.4232L57.0695 25.4713C57.7849 23.5529 58.4021 21.9125 58.9213 20.5496L56.1178 19.4816ZM54.2616 24.4153C53.5439 26.3072 52.7127 28.524 51.7679 31.0652L54.5798 32.1106C55.523 29.5737 56.3519 27.3634 57.0666 25.4792L54.2616 24.4153ZM51.7679 31.0652C50.8221 33.6089 49.7465 36.5424 48.5411 39.8654L51.3613 40.8885C52.5647 37.5708 53.6375 34.645 54.5798 32.1106L51.7679 31.0652ZM48.5438 39.8581C45.506 48.0989 42.3387 54.9053 39.0512 60.2994L41.6129 61.8607C45.0311 56.2522 48.2766 49.2566 51.3586 40.8958L48.5438 39.8581ZM39.0512 60.2994C35.7618 65.6965 32.2701 69.8656 28.5944 72.856L30.4876 75.1831C34.4943 71.9235 38.1965 67.4662 41.6129 61.8607L39.0512 60.2994ZM29.0225 75.427C30.2549 75.8811 31.602 76.3842 33.0636 76.9364L34.1239 74.13C32.6559 73.5754 31.301 73.0694 30.0596 72.612L29.0225 75.427ZM33.0912 76.9465C34.5974 77.4821 36.2141 77.9818 37.9401 78.4465L38.72 75.5496C37.0606 75.1029 35.5198 74.626 34.0963 74.1199L33.0912 76.9465ZM37.9401 78.4465C39.6877 78.917 41.5141 79.3021 43.4184 79.6027L43.8863 76.6394C42.0797 76.3542 40.3579 75.9906 38.72 75.5496L37.9401 78.4465ZM43.4223 79.6034C45.3918 79.909 47.4383 80.0605 49.5605 80.0605V77.0605C47.5812 77.0605 45.689 76.9192 43.8823 76.6388L43.4223 79.6034ZM49.5605 80.0605C52.8985 80.0605 55.9831 79.6729 58.8035 78.8818L57.9933 75.9932C55.4753 76.6995 52.6679 77.0605 49.5605 77.0605V80.0605ZM58.8198 78.8771C61.6051 78.0619 64.1534 76.9526 66.4568 75.5431L64.8909 72.9842C62.8322 74.244 60.5303 75.2506 57.9771 75.9979L58.8198 78.8771ZM66.4483 75.5482C68.7618 74.1533 70.8444 72.5328 72.6915 70.6857L70.5702 68.5643C68.9017 70.2328 67.0129 71.7047 64.8993 72.9791L66.4483 75.5482ZM72.6915 70.6857C74.54 68.8372 76.206 66.8687 77.6881 64.7802L75.2416 63.044C73.8591 64.992 72.3024 66.8321 70.5702 68.5643L72.6915 70.6857ZM77.6962 64.7687C79.3072 62.4529 80.7627 59.9421 82.0644 57.2386L79.3614 55.9372C78.124 58.5071 76.7475 60.8791 75.2335 63.0555L77.6962 64.7687ZM82.0675 57.2321C83.3677 54.4983 84.4835 51.6501 85.4152 48.6884L82.5535 47.7881C81.6624 50.6207 80.5971 53.3389 79.3583 55.9436L82.0675 57.2321ZM85.4152 48.6884C86.3482 45.723 87.0646 42.7073 87.5644 39.6418L84.6035 39.159C84.1268 42.0831 83.4435 44.9592 82.5535 47.7881L85.4152 48.6884ZM87.5648 39.6392C88.0656 36.5348 88.3164 33.4439 88.3164 30.3672H85.3164C85.3164 33.2801 85.079 36.2113 84.6031 39.1615L87.5648 39.6392ZM10.1562 80.6465C12.6824 80.6465 15.0029 80.4277 17.1095 79.9788L16.4842 77.0447C14.6195 77.4421 12.513 77.6465 10.1562 77.6465V80.6465ZM17.1324 79.9737C19.3374 79.4676 21.4264 78.4784 23.3959 77.0365L21.6237 74.6159C19.9473 75.8432 18.2277 76.6443 16.4613 77.0497L17.1324 79.9737ZM22.9408 74.3894C22.2752 74.1897 21.3522 73.9261 20.1769 73.5996L19.3739 76.4902C20.5423 76.8147 21.4423 77.072 22.0787 77.2629L22.9408 74.3894ZM20.2137 73.6104C18.9923 73.2372 17.6621 72.9009 16.2253 72.6002L15.6107 75.5365C16.9733 75.8218 18.2147 76.1365 19.3371 76.4794L20.2137 73.6104ZM16.2654 72.6092C14.8575 72.2739 13.4024 71.9897 11.9005 71.7561L11.4394 74.7205C12.8671 74.9425 14.244 75.2117 15.5705 75.5276L16.2654 72.6092ZM11.9056 71.7569C10.4061 71.5184 8.97583 71.3965 7.61719 71.3965V74.3965C8.7976 74.3965 10.0691 74.5025 11.4342 74.7197L11.9056 71.7569ZM7.61719 71.3965C5.82412 71.3965 4.22649 71.6581 2.89492 72.2634L4.13633 74.9945C4.9532 74.6232 6.08994 74.3965 7.61719 74.3965V71.3965ZM2.87897 72.2707C2.151 72.612 1.52057 73.109 1.08034 73.7969C0.639529 74.4857 0.453125 75.2662 0.453125 76.0703H3.45312C3.45312 75.7351 3.52714 75.5391 3.60716 75.414C3.68776 75.2881 3.83858 75.1341 4.15228 74.9871L2.87897 72.2707ZM0.453125 76.0703C0.453125 76.7339 0.608446 77.3698 0.904453 77.9618L3.58773 76.6202C3.49312 76.431 3.45312 76.253 3.45312 76.0703H0.453125ZM0.980602 78.0963C1.41323 78.7762 2.08825 79.2554 2.79598 79.6092L4.13762 76.9259C3.67347 76.6939 3.53469 76.522 3.51159 76.4857L0.980602 78.0963ZM2.88471 79.65C3.66041 79.9766 4.62344 80.2122 5.72547 80.3844L6.1886 77.4203C5.20729 77.267 4.51016 77.0793 4.04888 76.8851L2.88471 79.65ZM5.73232 80.3854C6.91099 80.564 8.39398 80.6465 10.1562 80.6465V77.6465C8.46799 77.6465 7.15151 77.5662 6.18174 77.4193L5.73232 80.3854Z" fill="white"/>
</svg>
