<svg width="55" height="16" viewBox="0 0 55 16" fill="none" xmlns="http://www.w3.org/2000/svg">
<path d="M54 7C54.5523 7 55 7.44772 55 8C55 8.55228 54.5523 9 54 9V7ZM0.292897 8.70711C-0.0976273 8.31658 -0.0976273 7.68342 0.292897 7.29289L6.65686 0.928932C7.04738 0.538408 7.68055 0.538408 8.07107 0.928932C8.4616 1.31946 8.4616 1.95262 8.07107 2.34315L2.41422 8L8.07107 13.6569C8.4616 14.0474 8.4616 14.6805 8.07107 15.0711C7.68055 15.4616 7.04738 15.4616 6.65686 15.0711L0.292897 8.70711ZM54 9H1V7H54V9Z" fill="#111111"/>
</svg>
